<?xml version="1.0" encoding="utf-8"?>
<svg viewBox="0 0 91 82" xmlns="http://www.w3.org/2000/svg">
  <g transform="matrix(0.1, 0, 0, -0.1, 0, 82.000002)" fill="#000000" stroke="none">
    <path d="M170 535 c0 -92 5 -175 12 -199 14 -50 57 -115 98 -150 57 -48 170 -68 253 -45 44 12 46 19 9 46 -42 31 -92 132 -92 184 -1 161 -100 293 -239 315 l-41 7 0 -158z" style="fill: rgb(90, 74, 209);"/>
    <path d="M590 517 c-70 -33 -89 -102 -51 -190 21 -48 83 -117 106 -117 31 0 95 133 95 199 0 36 -33 87 -69 106 -35 18 -47 18 -81 2z" style="fill: rgb(90, 74, 209);"/>
  </g>
</svg>